<svg id="Layer_1" data-name="Layer 1" xmlns="http://www.w3.org/2000/svg" width="100" height="89.66" viewBox="0 0 100 89.66"><title>hiq-logo</title><path d="M49.65,29.21a6.61,6.61,0,1,1,0-.06" fill="#fff"/><path d="M92.29,8.76a26.79,26.79,0,0,0-2.95-2.58l-78.78,0A27.34,27.34,0,0,0,7.64,8.77H92.29Z" fill="#fff"/><path d="M2,17.52A25.38,25.38,0,0,1,3.62,14.1H22a15.37,15.37,0,0,0-4.81,3.48Z" fill="#fff"/><polygon points="0 49.17 0 43.73 12.56 43.83 12.56 49.17 0 49.17" fill="#fff"/><path d="M0,50.77A26.6,26.6,0,0,0,26.51,77h46.9A26.58,26.58,0,0,0,99.94,50.77H87.43V52A13.68,13.68,0,0,1,73.8,65.6H26.19A13.68,13.68,0,0,1,12.57,52v-1.2Z" fill="#fff"/><polygon points="87.38 49.17 87.38 43.73 99.94 43.79 99.94 49.17 87.38 49.17" fill="#fff"/><polygon points="87.38 42.27 87.38 37.46 99.94 37.46 99.94 42.35 87.38 42.27" fill="#fff"/><polygon points="87.38 35.93 87.38 31.14 99.94 31.14 99.94 35.99 87.38 35.93" fill="#fff"/><path d="M87.43,29.54V27.09a13.69,13.69,0,0,0-.2-2.34H99.93c0,.65.07,1.3.07,2v2.82Z" fill="#fff"/><path d="M4.51,12.57a26.79,26.79,0,0,1,1.69-2.23H93.75a24,24,0,0,1,1.68,2.21H4.51Z" fill="#fff"/><path d="M12.21,4.71A24.85,24.85,0,0,1,15,3.13H84.85a26.61,26.61,0,0,1,2.82,1.58Z" fill="#fff"/><path d="M82.41,1.58a26,26,0,0,0-9-1.58H26.51a26.27,26.27,0,0,0-9.1,1.61Z" fill="#fff"/><path d="M1.07,19h14.1a13.5,13.5,0,0,0-2.12,4.23H.18a26.34,26.34,0,0,1,.92-4.15" fill="#fff"/><path d="M0,29.54V26.79a15.86,15.86,0,0,1,.08-2l12.69.11a13.4,13.4,0,0,0-.18,2.23v2.44Z" fill="#fff"/><polygon points="0 35.93 0 31.05 12.56 31.14 12.56 35.86 0 35.93" fill="#fff"/><polygon points="0 42.22 0 37.3 12.56 37.41 12.56 42.22 0 42.22" fill="#fff"/><path d="M47.51,14.1H24.33v3.4H38.18a11.44,11.44,0,0,1,9.34-3.4" fill="#fff"/><path d="M24.33,19h13a7.87,7.87,0,0,0-.52,1.89v2.36H24.33V19.05Z" fill="#fff"/><path d="M52.55,14.1H75.11v3.53H61.3s-2.44-3.88-8.76-3.53" fill="#fff"/><path d="M75.15,19.15H62.05A8.17,8.17,0,0,1,62.57,21V23.4H75.08V19.17Z" fill="#fff"/><rect x="24.33" y="24.82" width="12.52" height="4.72" fill="#fff"/><rect x="24.33" y="31.14" width="12.52" height="4.85" fill="#fff"/><rect x="62.6" y="24.82" width="12.49" height="4.72" fill="#fff"/><rect x="62.6" y="31.14" width="12.49" height="4.85" fill="#fff"/><path d="M24.33,42.31H75.1V37.51H62.6a3.4,3.4,0,0,1-2.93,2,3.24,3.24,0,0,1-3-2.09H42.77a3.53,3.53,0,0,1-3,2.13,3.16,3.16,0,0,1-2.95-2.19H24.33Z" fill="#fff"/><rect x="24.33" y="43.73" width="50.78" height="5.47" fill="#fff"/><path d="M24.33,50.77v15H42.76s-5.53-.08-5.92-4.23c-.25-2.62,0-10.73,0-10.73H24.33Z" fill="#fff"/><path d="M43,36.06c1.14-2.47,3.12-5,6.57-5,4,0,5.42,2.57,6.57,5Z" fill="#fff"/><path d="M40.7,50.85v6.49a5,5,0,0,0,4.94,4.92h8a5,5,0,0,0,4.94-4.92V50.85Z" fill="#fff"/><path d="M62.54,50.77l-.1,6.85s-.39,17.2,17.47,32l10.68-7.49S75.19,71.09,75.08,58.52L75,50.77Z" fill="#fff"/><path d="M98.22,17.5a27.42,27.42,0,0,0-1.68-3.4H78.21A15.13,15.13,0,0,1,83,17.57Z" fill="#fff"/><path d="M98.72,19H84.61a13.52,13.52,0,0,1,2.12,4.23H99.61a26.19,26.19,0,0,0-.92-4.15" fill="#fff"/></svg>